<?xml version="1.0" standalone="no"?>
<!DOCTYPE svg PUBLIC "-//W3C//DTD SVG 20010904//EN"
 "http://www.w3.org/TR/2001/REC-SVG-20010904/DTD/svg10.dtd">
<svg version="1.0" xmlns="http://www.w3.org/2000/svg"
 width="800.000000pt" height="100.000000pt" viewBox="0 0 800.000000 100.000000"
 preserveAspectRatio="xMidYMid meet">

<g transform="translate(0.000000,100.000000) scale(0.100000,-0.100000)"
fill="#000000" stroke="none">
<path d="M20 645 l0 -335 50 0 50 0 0 240 0 240 45 0 45 0 0 -50 0 -50 50 0
50 0 0 -45 0 -45 45 0 45 0 0 -145 0 -145 50 0 50 0 0 335 0 335 -50 0 -50 0
0 -145 0 -145 -45 0 -45 0 0 50 0 50 -50 0 -50 0 0 50 0 50 -45 0 -45 0 0 45
0 45 -50 0 -50 0 0 -335z"/>
<path d="M2320 645 l0 -335 50 0 50 0 0 240 0 240 50 0 50 0 0 -50 0 -50 45 0
45 0 0 50 0 50 50 0 50 0 0 -240 0 -240 45 0 45 0 0 335 0 335 -45 0 -45 0 0
-45 0 -45 -50 0 -50 0 0 -50 0 -50 -45 0 -45 0 0 50 0 50 -50 0 -50 0 0 45 0
45 -50 0 -50 0 0 -335z"/>
<path d="M3000 935 l0 -45 -50 0 -50 0 0 -239 0 -240 48 -3 47 -3 3 -48 3 -47
139 0 139 0 3 48 3 47 48 3 47 3 0 45 0 44 -50 0 -50 0 0 -45 0 -45 -140 0
-140 0 0 240 0 240 140 0 140 0 0 -50 0 -50 50 0 50 0 0 50 0 50 -50 0 -50 0
0 45 0 45 -140 0 -140 0 0 -45z"/>
<path d="M3960 935 l0 -45 -50 0 -50 0 0 -290 0 -290 50 0 50 0 0 190 0 190
140 0 140 0 0 -190 0 -190 50 0 50 0 0 290 0 290 -50 0 -50 0 0 45 0 45 -140
0 -140 0 0 -45z m280 -95 l0 -50 -140 0 -140 0 0 50 0 50 140 0 140 0 0 -50z"/>
<path d="M4440 645 l0 -335 45 0 45 0 0 190 0 190 145 0 145 0 0 50 0 50 50 0
50 0 0 50 0 50 -50 0 -50 0 0 45 0 45 -190 0 -190 0 0 -335z m380 195 l0 -50
-145 0 -145 0 0 43 c0 24 3 47 7 50 3 4 69 7 145 7 l138 0 0 -50z"/>
<path d="M5010 936 l0 -45 48 -3 47 -3 3 -237 2 -238 -50 0 -50 0 0 -50 0 -50
145 0 145 0 0 50 0 50 -50 0 -50 0 2 238 3 237 48 3 47 3 0 45 0 44 -145 0
-145 0 0 -44z"/>
<path d="M5780 645 l0 -335 189 0 190 0 3 48 3 47 48 3 47 3 0 240 0 239 -50
0 -50 0 0 45 0 45 -190 0 -190 0 0 -335z m380 5 l0 -240 -140 0 -140 0 0 240
0 240 140 0 140 0 0 -240z"/>
<path d="M690 740 l0 -50 145 0 145 0 0 -45 0 -45 -145 0 -145 0 0 -50 0 -50
-45 0 -45 0 0 -45 0 -45 45 0 45 0 0 -50 0 -50 195 0 195 0 0 190 0 190 -50 0
-50 0 0 50 0 50 -145 0 -145 0 0 -50z m290 -285 l0 -45 -145 0 -145 0 0 45 0
45 145 0 145 0 0 -45z"/>
<path d="M1170 550 l0 -240 50 0 50 0 0 190 0 190 45 0 45 0 0 -95 0 -95 50 0
50 0 0 95 0 95 50 0 50 0 0 -190 0 -190 45 0 45 0 0 190 0 190 -45 0 -45 0 0
50 0 50 -50 0 -50 0 0 -51 0 -50 -47 3 -48 3 -3 48 -3 47 -95 0 -94 0 0 -240z"/>
<path d="M1840 740 l0 -50 -45 0 -45 0 0 -140 0 -140 45 0 45 0 0 -50 0 -50
195 0 195 0 0 50 0 50 -195 0 -195 0 0 45 0 45 195 0 195 0 0 94 0 95 -47 3
-48 3 -3 48 -3 47 -145 0 -144 0 0 -50z m290 -95 l0 -45 -145 0 -145 0 0 45 0
45 145 0 145 0 0 -45z"/>
<path d="M6450 740 l0 -50 -45 0 -45 0 0 -140 0 -140 45 0 45 0 0 -50 0 -50
145 0 145 0 0 50 0 50 50 0 50 0 0 140 0 140 -50 0 -50 0 0 50 0 50 -145 0
-145 0 0 -50z m290 -190 l0 -140 -145 0 -145 0 0 140 0 140 145 0 145 0 0
-140z"/>
<path d="M7028 743 l-3 -48 -47 -3 -48 -3 0 -139 0 -139 48 -3 47 -3 3 -47 3
-48 145 0 144 0 0 50 0 50 45 0 45 0 0 45 0 45 -45 0 -45 0 0 -45 0 -45 -145
0 -145 0 0 140 0 140 145 0 145 0 0 -45 0 -45 45 0 45 0 0 45 0 45 -45 0 -45
0 0 50 0 50 -144 0 -145 0 -3 -47z"/>
<path d="M7600 740 l0 -50 -45 0 -45 0 0 -45 0 -45 45 0 45 0 0 -50 0 -50 145
0 145 0 0 -45 0 -45 -190 0 -190 0 0 -50 0 -50 189 0 190 0 3 48 3 47 48 3 47
3 0 45 0 44 -50 0 -50 0 0 50 0 50 -145 0 -145 0 0 45 0 45 195 0 195 0 0 50
0 50 -195 0 -195 0 0 -50z"/>
<path d="M390 175 c0 -56 4 -80 17 -95 21 -24 83 -28 83 -5 0 8 7 15 15 15 12
0 15 16 15 80 0 44 -4 80 -9 80 -5 0 -12 -36 -16 -80 l-7 -80 -39 0 -39 0 0
80 c0 47 -4 80 -10 80 -6 0 -10 -32 -10 -75z"/>
<path d="M926 231 c-3 -5 1 -12 10 -15 25 -10 34 -7 34 9 0 16 -35 21 -44 6z"/>
<path d="M1060 225 c0 -9 9 -15 25 -15 16 0 25 6 25 15 0 9 -9 15 -25 15 -16
0 -25 -6 -25 -15z"/>
<path d="M1140 225 c0 -8 5 -15 10 -15 6 0 10 7 10 15 0 8 -4 15 -10 15 -5 0
-10 -7 -10 -15z"/>
<path d="M1350 220 c0 -5 5 -10 10 -10 6 0 10 5 10 10 0 6 -4 10 -10 10 -5 0
-10 -4 -10 -10z"/>
<path d="M1567 223 c-4 -3 -7 -39 -7 -80 0 -58 3 -73 15 -73 8 0 15 -7 15 -15
0 -8 5 -15 10 -15 6 0 10 7 10 15 0 8 -4 15 -10 15 -6 0 -10 33 -10 80 0 73
-6 91 -23 73z"/>
<path d="M887 190 c-12 -12 -15 -20 -8 -25 6 -3 11 -28 11 -56 0 -37 4 -49 15
-49 11 0 15 12 15 50 0 47 2 50 25 50 14 0 25 5 25 10 0 6 -9 10 -20 10 -11 0
-23 7 -26 15 -8 19 -15 18 -37 -5z"/>
<path d="M1018 189 c-22 -23 -22 -29 -3 -29 12 0 15 -13 15 -55 0 -70 18 -72
22 -3 3 49 5 53 31 56 34 4 36 22 2 22 -14 0 -28 7 -31 15 -8 19 -15 18 -36
-6z"/>
<path d="M120 190 c0 -5 7 -10 15 -10 8 0 15 -7 15 -15 0 -8 -7 -15 -15 -15
-8 0 -15 -7 -15 -15 0 -8 7 -15 15 -15 8 0 15 7 15 15 0 9 9 15 25 15 16 0 25
-6 25 -15 0 -8 7 -15 15 -15 8 0 15 3 15 6 0 14 -46 54 -62 54 -10 0 -18 5
-18 10 0 6 -7 10 -15 10 -8 0 -15 -4 -15 -10z"/>
<path d="M200 190 c0 -5 7 -10 15 -10 8 0 15 5 15 10 0 6 -7 10 -15 10 -8 0
-15 -4 -15 -10z"/>
<path d="M260 190 c0 -5 5 -10 10 -10 6 0 10 5 10 10 0 6 -4 10 -10 10 -5 0
-10 -4 -10 -10z"/>
<path d="M336 185 c-3 -8 -14 -15 -26 -15 -20 0 -60 -28 -60 -42 0 -5 7 -8 15
-8 8 0 15 7 15 15 0 9 9 15 25 15 14 0 25 5 25 10 0 6 7 10 15 10 8 0 15 7 15
15 0 8 -4 15 -9 15 -5 0 -11 -7 -15 -15z"/>
<path d="M550 125 c0 -78 18 -88 22 -12 l3 52 38 3 37 3 0 -55 c0 -43 3 -56
15 -56 12 0 15 13 15 55 0 42 -3 55 -15 55 -8 0 -15 5 -15 10 0 6 -22 10 -50
10 l-50 0 0 -65z"/>
<path d="M728 169 c-19 -20 -25 -79 -8 -79 6 0 10 -7 10 -15 0 -11 11 -15 40
-15 22 0 40 5 40 10 0 6 7 10 15 10 11 0 15 11 15 40 0 29 -4 40 -15 40 -11 0
-15 -11 -15 -41 l0 -40 -37 3 c-37 3 -38 4 -38 43 0 39 1 40 38 43 45 4 50 22
5 21 -19 0 -41 -9 -50 -20z"/>
<path d="M1136 164 c-3 -9 -6 -38 -6 -65 0 -37 4 -49 15 -49 12 0 15 14 15 65
0 62 -11 84 -24 49z"/>
<path d="M1208 161 c-19 -19 -25 -81 -8 -81 6 0 10 -7 10 -15 0 -24 66 -19 91
6 11 11 18 24 14 27 -4 4 -12 -1 -19 -11 -14 -18 -52 -22 -74 -8 -8 5 -12 22
-10 42 3 31 6 34 41 37 20 2 37 7 37 13 0 16 -64 9 -82 -10z"/>
<path d="M1350 115 c0 -37 4 -65 10 -65 6 0 10 28 10 65 0 37 -4 65 -10 65 -6
0 -10 -28 -10 -65z"/>
<path d="M1435 172 c-14 -14 -1 -22 35 -22 29 0 40 -4 40 -15 0 -11 -11 -15
-40 -15 -22 0 -40 -4 -40 -10 0 -5 -7 -10 -15 -10 -8 0 -15 -7 -15 -15 0 -8 6
-15 14 -15 8 0 16 -4 18 -10 2 -5 24 -13 51 -16 l47 -7 0 52 c0 29 -6 58 -13
65 -13 14 -73 26 -82 18z m73 -89 c2 -9 -9 -13 -37 -13 -30 0 -41 4 -41 16 0
11 9 14 37 12 20 -2 38 -9 41 -15z"/>
<path d="M1640 160 c0 -5 7 -10 15 -10 8 0 15 -7 15 -15 0 -8 -7 -15 -15 -15
-8 0 -15 -7 -15 -15 0 -8 7 -15 15 -15 8 0 15 7 15 15 0 9 9 15 25 15 16 0 25
-6 25 -15 0 -8 7 -15 15 -15 8 0 15 7 15 15 0 8 -7 15 -15 15 -8 0 -15 7 -15
15 0 8 7 15 15 15 8 0 15 5 15 10 0 6 -7 10 -15 10 -8 0 -15 -4 -15 -10 0 -5
-11 -10 -25 -10 -14 0 -25 5 -25 10 0 6 -7 10 -15 10 -8 0 -15 -4 -15 -10z"/>
<path d="M1775 160 c-3 -5 1 -10 9 -10 9 0 16 5 16 10 0 6 -4 10 -9 10 -6 0
-13 -4 -16 -10z"/>
<path d="M1854 155 c-4 -8 -15 -15 -25 -15 -19 0 -59 -28 -59 -42 0 -5 7 -8
15 -8 8 0 15 7 15 15 0 9 9 15 25 15 14 0 25 5 25 10 0 6 7 10 15 10 8 0 15 7
15 15 0 8 -5 15 -10 15 -6 0 -13 -7 -16 -15z"/>
<path d="M1290 140 c0 -5 7 -10 15 -10 8 0 15 5 15 10 0 6 -7 10 -15 10 -8 0
-15 -4 -15 -10z"/>
<path d="M330 130 c0 -5 7 -10 15 -10 8 0 15 5 15 10 0 6 -7 10 -15 10 -8 0
-15 -4 -15 -10z"/>
<path d="M1850 100 c0 -5 7 -10 15 -10 8 0 15 5 15 10 0 6 -7 10 -15 10 -8 0
-15 -4 -15 -10z"/>
</g>
</svg>
